<svg xmlns="http://www.w3.org/2000/svg" xmlns:xlink="http://www.w3.org/1999/xlink" xml:space="preserve" width="180" height="180"><defs><linearGradient id="b"><stop offset=".28" style="stop-color:#d87a18"/><stop offset=".75" style="stop-color:#883313"/></linearGradient><linearGradient id="a"><stop offset=".155" style="stop-color:#ea962e"/><stop offset="1" style="stop-color:#c35800"/></linearGradient><linearGradient xlink:href="#a" id="d" x1="128.5" x2="65.5" y1="88.5" y2="150.75" gradientUnits="userSpaceOnUse"/><linearGradient xlink:href="#b" id="c" x1="62.999" x2="141.711" y1="168.261" y2="91.761" gradientUnits="userSpaceOnUse"/></defs><path d="M116.826 171.352c3.355-8.138 8.108-11.097 6.55-20.539-1.095-7.505-1.592-11.18-10.572-14.835C80.125 122.675 67.168 99.524 60.45 86.53c-2.495-5.322-8.107-11.84-16.583-14.395 4.967-.421 5.567-.977 11.703 1.191C37.683 59.25 30.193 43.035 12.5 45.787c6.442-2.999 10.86-4.243 22.647-4.594-1.5-1.463-5.28-1.75-12.1-2.582 11.348-4.417 49.304-7.233 52.993 3.443L92.8 59.445l20.755 29.435 29.157 55.724c-2.863 13.101-14.595 19.765-25.885 26.748z" style="fill:url(#c);"/><path d="M43.827 34.944c-8.529.579-16.526 2.01-20.782 3.667 6.82.832 10.6 1.12 12.1 2.583-11.786.351-16.203 1.594-22.645 4.594 17.694-2.753 25.184 13.461 43.072 27.538-6.136-2.169-6.737-1.612-11.704-1.191 8.475 2.555 14.087 9.072 16.582 14.394a178.406 178.406 0 0 0 3.52 6.498l-.996-8.528 11.488 15.38-2.19-18.203 11.957-31.123-8.19-8.499c-2.305-6.672-17.997-8.075-32.212-7.11Z" style="fill:#edcba1;"/><path d="M114.187 173.256c12.613-3.77 27.567-11.447 36.168-28.652 10.184-26.878-11.531-45.34-37.468-75.783-8.37-11.26-14.594-25.897-10.019-33.72-2.525 1.305-2.825 2.959-4.549 5.956 2.362-8.729-2.272-21.522 12.568-36.484-5.661 1.74-24.62 5.312-32.6 30.367 2.174-9.595.496-4.103 3.134-14.289-15.337 18.962-16.998 34.406-14.654 54.317.913 14.118 15.645 40.815 51.973 57.18 7.69 3.464 8.067 7.478 8.884 11.61.926 8.73-3.53 19.325-13.437 29.498z" style="fill:url(#d);"/><path d="M110.887 4.573c-5.662 1.741-24.62 5.313-32.6 30.368 2.174-9.595.496-4.104 3.134-14.29C68.667 36.419 65.23 49.607 65.985 65.259c.032 1.6.15 3.07.24 4.582l3.033-10.437 3.978 12.46 3.931-15.793 5.176 18.872 1.67-16.26 7.51 14.623-.367-14.975 6.788 13.808-2.067-20.79 9.429 17.846-.584-10.854 4.204 4.543c-6.157-10.071-9.863-21.276-6.058-27.783-2.525 1.304-2.825 2.959-4.549 5.956 2.362-8.729-2.272-21.522 12.568-36.484Z" style="fill:#f1dab2;"/></svg>
