<?xml version="1.0" encoding="UTF-8" standalone="no"?>
<svg viewBox="0 0 40 40" version="1.1" xmlns:xlink="http://www.w3.org/1999/xlink" xmlns="http://www.w3.org/2000/svg" xmlns:svg="http://www.w3.org/2000/svg">
  <linearGradient id="g1" x1="0" y1="1.9478259" x2="0" y2="38.052174" gradientUnits="userSpaceOnUse">
    <stop style="stop-color:#ff3277" offset="0"/>
    <stop style="stop-color:#ff8833" offset="0.5"/>
    <stop style="stop-color:#ffee32" offset="1"/>
  </linearGradient>
  <path style="fill:url(#g1)" d="M 38,20.000001 A 18,18.000001 0 0 1 20,38 18,18.000001 0 0 1 2,20.000001 18,18.000001 0 0 1 20,2 18,18.000001 0 0 1 38,20.000001 Z" />
  <path style="fill:#000" d="M 20,4 A 16,15.999999 0 0 0 4,20 16,15.999999 0 0 0 20,36 16,15.999999 0 0 0 36,20 16,15.999999 0 0 0 20,4 Z m -9.4375,5.9277344 h 4.005859 l 4.402344,11.0039066 c 0.131666,0.33857 0.300908,0.81874 0.507813,1.439453 0.225713,0.601903 0.441533,1.259849 0.648437,1.974609 0.206904,-0.69595 0.41419,-1.345363 0.621094,-1.947265 0.225713,-0.620713 0.413977,-1.109418 0.564453,-1.466797 L 25.712891,9.9277344 h 3.921875 l 1.128906,19.1015626 h -4.373047 l -0.169922,-3.835938 c -0.01881,-0.357379 -0.03588,-0.829016 -0.05469,-1.412109 v -1.833984 -1.945313 c 0.01881,-0.658331 0.02734,-1.223123 0.02734,-1.693359 -0.150475,0.394999 -0.319717,0.84566 -0.507812,1.353515 -0.169285,0.489046 -0.349015,0.969217 -0.537109,1.439453 -0.188095,0.470237 -0.365872,0.912364 -0.535157,1.326172 -0.169285,0.394999 -0.300484,0.705927 -0.394531,0.931641 l -2.398438,5.669922 h -3.527343 l -2.341797,-5.416016 c -0.05643,-0.150475 -0.168606,-0.42336 -0.337891,-0.818359 -0.150475,-0.413808 -0.330205,-0.874957 -0.537109,-1.382813 -0.188095,-0.526665 -0.384893,-1.0639 -0.591797,-1.609375 -0.206904,-0.545474 -0.395168,-1.042713 -0.564453,-1.49414 v 1.693359 1.945313 c 0,0.658331 -0.0085,1.280187 -0.02734,1.863281 0,0.583093 -0.01049,1.044242 -0.0293,1.382812 l -0.140625,3.835938 H 9.4335938 Z" aria-label="Mitsunee" />
</svg>
