<?xml version="1.0" encoding="UTF-8" standalone="no"?>
<!-- Created with Inkscape (http://www.inkscape.org/) -->

<svg
   width="180"
   height="180"
   viewBox="0 0 180 180"
   version="1.1"
   id="svg5"
   xml:space="preserve"
   inkscape:version="1.2.2 (b0a8486541, 2022-12-01)"
   sodipodi:docname="mitsunee_tails_icon.inkscape.svg"
   xmlns:inkscape="http://www.inkscape.org/namespaces/inkscape"
   xmlns:sodipodi="http://sodipodi.sourceforge.net/DTD/sodipodi-0.dtd"
   xmlns:xlink="http://www.w3.org/1999/xlink"
   xmlns="http://www.w3.org/2000/svg"
   xmlns:svg="http://www.w3.org/2000/svg"><sodipodi:namedview
     id="namedview7"
     pagecolor="#505050"
     bordercolor="#eeeeee"
     borderopacity="1"
     inkscape:showpageshadow="0"
     inkscape:pageopacity="0"
     inkscape:pagecheckerboard="0"
     inkscape:deskcolor="#505050"
     inkscape:document-units="px"
     showgrid="false"
     inkscape:zoom="2.8284271"
     inkscape:cx="145.13367"
     inkscape:cy="90.156114"
     inkscape:window-width="1920"
     inkscape:window-height="1056"
     inkscape:window-x="1920"
     inkscape:window-y="0"
     inkscape:window-maximized="1"
     inkscape:current-layer="svg5" /><defs
     id="defs2"><linearGradient
       inkscape:collect="always"
       id="linearGradient1598"><stop
         style="stop-color:#d87a18;stop-opacity:1;"
         offset="0.27982833"
         id="stop1596" /><stop
         style="stop-color:#883313;stop-opacity:1;"
         offset="0.75"
         id="stop1594" /></linearGradient><linearGradient
       inkscape:collect="always"
       id="linearGradient1503"><stop
         style="stop-color:#ea962e;stop-opacity:1;"
         offset="0.15450643"
         id="stop1499" /><stop
         style="stop-color:#c35800;stop-opacity:1;"
         offset="1"
         id="stop1501" /></linearGradient><linearGradient
       inkscape:collect="always"
       xlink:href="#linearGradient1503"
       id="linearGradient1505"
       x1="128.5"
       y1="88.5"
       x2="65.5"
       y2="150.75"
       gradientUnits="userSpaceOnUse" /><linearGradient
       inkscape:collect="always"
       xlink:href="#linearGradient1598"
       id="linearGradient1600"
       x1="62.999283"
       y1="168.26123"
       x2="141.71074"
       y2="91.761238"
       gradientUnits="userSpaceOnUse" /></defs><path
     style="display:inline;fill:url(#linearGradient1600);fill-opacity:1;stroke:none;stroke-width:1px;stroke-linecap:butt;stroke-linejoin:miter;stroke-opacity:1"
     d="m 116.82612,171.35223 c 3.35536,-8.13816 8.10816,-11.09766 6.54964,-20.53897 -1.09508,-7.50551 -1.59201,-11.17974 -10.57183,-14.83528 C 80.125233,122.67504 67.167998,99.524495 60.450679,86.530215 57.955654,81.207739 52.343534,74.689776 43.867875,72.13488 48.835367,71.713901 49.434692,71.15764 55.571278,73.326313 37.683149,59.249611 30.193241,43.03499 12.499284,45.787487 18.941403,42.78845 23.359005,41.544383 35.146161,41.193056 33.646091,39.729899 29.865417,39.442845 23.045129,38.611089 34.394158,34.194151 72.350042,31.377965 76.03912,42.0542 l 16.759577,17.391095 20.755773,29.434444 29.15627,55.724641 c -2.86324,13.10099 -14.59426,19.76447 -25.88462,26.74785 z"
     id="path1008"
     sodipodi:nodetypes="ccsccccccccccc"
     inkscape:label="lower tail" /><path
     id="path1226"
     style="display:inline;fill:#edcba1;fill-opacity:1;stroke:none;stroke-width:1px;stroke-linecap:butt;stroke-linejoin:miter;stroke-opacity:1"
     d="m 43.826935,34.943785 c -8.52892,0.579037 -16.526314,2.01061 -20.782195,3.66696 6.820281,0.831755 10.600972,1.119805 12.101041,2.58296 -11.787144,0.351327 -16.203784,1.594774 -22.645897,4.593808 17.69394,-2.752494 25.184216,13.461748 43.072327,27.538436 -6.13658,-2.168672 -6.737212,-1.611921 -11.7047,-1.190942 8.475651,2.554893 14.087126,9.071948 16.582149,14.394419 1.009199,1.95224 2.183675,4.154936 3.520282,6.497827 L 62.974093,84.499123 74.461521,99.879268 72.271069,81.675875 84.22882,50.553499 76.039221,42.054437 C 73.73355,35.381797 58.041804,33.978719 43.826935,34.943785 Z"
     inkscape:label="lower tail tip"
     sodipodi:nodetypes="sccccccccccccs" /><path
     style="display:inline;fill:url(#linearGradient1505);fill-opacity:1;stroke:none;stroke-width:1px;stroke-linecap:butt;stroke-linejoin:miter;stroke-opacity:1"
     d="m 114.18701,173.25612 c 12.61341,-3.77107 27.56701,-11.44722 36.16755,-28.65241 C 160.5387,117.72585 138.82381,99.263368 112.88667,68.820899 104.51729,57.561339 98.29348,42.92362 102.86827,35.10123 c -2.52509,1.304348 -2.8253,2.958344 -4.549317,5.955576 C 100.68061,32.328303 96.047157,19.535364 110.88706,4.5734016 105.22576,6.3138747 86.267389,9.8845693 78.28698,34.940151 80.461075,25.344573 78.782612,30.83703 81.420919,20.651365 66.083939,39.612558 64.423442,55.056787 66.76688,74.967554 c 0.912635,14.118527 15.645522,40.815876 51.97299,57.180126 7.69029,3.46421 8.06663,7.47821 8.88455,11.60955 0.92598,8.73039 -3.53117,19.32617 -13.43741,29.49889 z"
     id="path356"
     sodipodi:nodetypes="cccccccccscc"
     inkscape:label="upper tail" /><path
     id="path1164"
     style="fill:#f1dab2;fill-opacity:1;stroke:none;stroke-width:1px;stroke-linecap:butt;stroke-linejoin:miter;stroke-opacity:1"
     d="M 110.8866,4.5734824 C 105.2253,6.3139543 86.267075,9.885577 78.286674,34.941135 c 2.174094,-9.59557 0.496457,-4.104531 3.134762,-14.290186 -12.754498,15.768457 -16.192099,28.956522 -15.436404,44.608258 0.03194,1.599302 0.149407,3.070314 0.239752,4.582009 l 3.033239,-10.436974 3.978014,12.460499 3.931284,-15.793544 5.175349,18.871913 1.67099,-16.260683 7.508446,14.623899 -0.366045,-14.975138 6.788088,13.807938 -2.066689,-20.7904 9.42836,17.846177 -0.58357,-10.853885 4.20417,4.543075 c -6.15763,-10.071048 -9.863594,-21.276542 -6.0583,-27.783178 -2.52509,1.304347 -2.82485,2.958777 -4.548865,5.956005 C 100.68091,32.328427 96.046712,19.53543 110.8866,4.5734824 Z"
     inkscape:label="upper tail tip"
     sodipodi:nodetypes="cccccccccccccccccccc" /></svg>
