<?xml version="1.0" encoding="UTF-8" standalone="no"?>
<svg viewBox="0 0 150 40" version="1.1" id="svg12" xmlns="http://www.w3.org/2000/svg" xmlns:svg="http://www.w3.org/2000/svg">
  <linearGradient id="g1" gradientUnits="userSpaceOnUse" x1="84.064" y1="109.152" x2="611" y2="12.307" gradientTransform="matrix(0.26458,0,0,0.26458,-16.862,4.049)">
    <stop style="stop-color:#ffee32" offset="0"/>
    <stop style="stop-color:#f83" offset="0.5"/>
    <stop style="stop-color:#ff3277" offset="1"/>
  </linearGradient>
  <path d="m 43.533,7.898 c -4.1,0.198 -4.603,4.048 -4.603,4.048 l -0.678,-1.735 h -8.33 l -5.537,13.88 -5.501,-13.905 -8.466,0.027 -1.66,28.115 H 18.4 l 0.18,-4.873 2.106,4.873 h 7.207 l 2.066,-4.89 0.219,4.89 h 9.734 l -0.174,-2.935 c 1.214,2.155 3.774,3.261 6.19,3.068 1.953,-0.057 3.83,-0.779 5.469,-1.816 0,0 2.747,1.453 4.99,1.715 2.575,0.355 5.19,-0.13 7.633,-0.95 3.496,1.275 7.565,1.945 11.048,0.275 1.403,-0.72 2.534,-1.919 3.247,-3.318 0.843,2.181 2.895,3.877 5.257,4.07 2.296,0.346 4.719,-0.164 6.666,-1.435 0.48,0.69 1.064,1.297 1.62,1.924 l 6.164,-1.946 0.01,1.258 19.507,0.09 -0.004,-4.1 c 1.53,2.6 4.441,4.228 7.436,4.348 3.345,0.286 6.747,-0.511 9.716,-2.039 0,0 5.45,2.083 8.14,2.092 3.039,0.058 6.85,-1.087 9.517,-2.53 v 0 c 0,0 -1.925,-7.634 -1.606,-8.154 2.417,-2.824 2.063,-7.461 -0.672,-9.947 -1.8,-1.629 -4.379,-2.046 -6.728,-1.954 -3.3,0.154 -6.52,1.858 -8.377,4.608 -0.828,-2.278 -2.94,-3.973 -5.327,-4.354 -4.136,-0.952 -8.822,0.56 -11.349,4.034 -0.37453,0.512953 -0.69933,1.060427 -0.97,1.635 -0.411,-2.408 -1.987,-4.777 -4.434,-5.455 -2.645,-0.77 -5.641,-0.338 -7.94,1.19 -0.477,-0.663 -0.96838,-1.3505 -1.554,-1.891 l -6.194,1.955 0.003,-1.416 -19.485,0.035 -0.049,1.289 c -3.44,-1.464 -7.472,-2.275 -11.06,-0.852 -0.887758,0.379086 -1.694131,0.925722 -2.375,1.61 l 0.312,-1.907 h -4.537 v -5.207 l -8.803,1.934 -0.52,3.118 -2.523,-0.01 C 49.973,13.847 49.227,9.689 46.299,8.362 45.439,7.965 44.473,7.849 43.533,7.898 Z" transform="translate(-5.555,-3.407)"/>
  <path style="fill:url(#g1)" d="m 38.365,6.718 c -1.059,0 -1.858,0.317 -2.4,0.952 -0.54,0.612 -0.81,1.388 -0.81,2.329 0,0.823 0.258,1.54 0.775,2.152 0.541,0.588 1.306,0.882 2.293,0.882 1.059,0 1.847,-0.306 2.364,-0.917 0.541,-0.612 0.811,-1.376 0.811,-2.293 C 41.398,8.929 41.14,8.188 40.622,7.6 40.105,7.012 39.352,6.718 38.365,6.718 Z M 6.79,9.047 5.38,32.928 h 5.362 c 0.121214,-3.962844 0.282046,-7.410627 0.247,-13.405 1.800793,4.9985 3.645333,9.229904 5.468,13.405 h 4.41 c 1.880216,-4.44915 3.8219,-8.877811 5.468,-13.405 -0.114556,4.419109 0.03452,8.90413 0.247,13.405 H 32.05 L 30.639,9.048 h -4.904 c 0,0 -5.195676,12.197738 -6.985,18.026 C 16.872047,21.09933 11.8,9.047 11.8,9.047 Z m 45.473,1.622 -4.833,1.059 -0.6,3.633 h -2.893 v 4.092 h 2.787 v 8.82 c 0,1.74 0.494,2.975 1.482,3.704 1.011,0.729 2.399,1.093 4.163,1.093 2.832805,0.03441 5.009,-0.846 5.009,-0.846 l -0.953,-3.74 c 0,0 -1.4522,0.442785 -2.539,0.389 -1.082,0 -1.623,-0.518 -1.623,-1.553 v -7.867 h 3.492 l 0.67,-4.092 h -4.162 z m 69.285,4.198 c 0,0 -8.96295,-0.374035 -8.96,9.702 0,1.293 0.17381,2.644063 0.423,3.563 1.5363,5.577628 7.62,5.115 7.62,5.115 3.90899,-0.01007 6.95,-1.587 6.95,-1.587 l -1.058,-3.67 c -3.3177,0.982187 -7.05909,2.458101 -7.903,-1.234 9.51839,-0.913533 9.102,-6.562 9.102,-6.562 0,0 0.47153,-5.280347 -6.174,-5.327 z m 16.898,0 c 0,0 -8.89578,-0.414394 -8.96,9.702 0,1.293 0.14,2.48 0.423,3.563 1.58413,5.637278 7.62,5.115 7.62,5.115 3.81551,0.04756 6.949,-1.587 6.949,-1.587 l -1.058,-3.67 c -3.79466,1.13282 -7.02402,2.290781 -7.902,-1.234 9.54253,-0.893886 9.102,-6.562 9.102,-6.562 0,0 0.51577,-5.285655 -6.174,-5.327 z m -78.14,1.553 c 0,0 -1.661349,1.213293 -1.658,3.739 0,1.317 0.376,2.422 1.129,3.316 0.776,0.87 2.046,1.658 3.81,2.364 0,0 2.125881,0.749015 2.081,2.081 -0.0639,1.665567 -2.963,0.953 -2.963,0.953 -1.03694,-0.321731 -2.858,-1.27 -2.858,-1.27 l -1.834,4.057 c 0,0 3.067009,1.634669 7.02,1.622 6.605501,-0.06891 6.35,-5.679 6.35,-5.679 0.274045,-3.834216 -4.409,-5.362 -4.409,-5.362 -4.031199,-1.59929 -2.258,-2.929 -2.258,-2.929 1.278474,-0.901123 4.797,1.023 4.797,1.023 l 1.764,-3.95 c 0,0 -6.884774,-3.362136 -10.971,0.035 z m 36.759,-1.447 -4.48,1.411 c 0,0 1.917632,1.822054 1.94,7.373 v 9.172 h 5.574 v -8.854 c 0.16448,-4.952799 2.681,-4.904 2.681,-4.904 1.52905,-0.107828 1.412,2.752 1.412,2.752 v 11.005 h 5.609 V 21.111 c 0,-1.858 -0.388,-3.34 -1.164,-4.445 -0.776,-1.129 -2.1284,-1.693 -3.916,-1.693 -4.68439,0.01416 -6.033,3.21 -6.033,3.21 0,0 -0.387989,-1.940197 -1.623,-3.21 z m -61.56,0.247 v 13.864 c 0,1.27 0.413,2.258 1.236,2.964 0.823,0.682 1.905,1.022 3.245,1.022 2.126217,-0.03044 3.492,-0.846 3.492,-0.846 l -0.493,-3.492 c -1.306534,0.255904 -1.895021,0.09896 -1.905,-1.235 V 15.22 Z m 38.665,0 v 11.783 c 0,0.94 0.083,1.787 0.247,2.54 0.945928,3.992056 4.833,3.598 4.833,3.598 1.247,0 2.4,-0.247 3.458,-0.74 1.081,-0.518 1.928,-1.33 2.54,-2.435 0,0 0.248685,1.701982 1.657,3.245 l 4.48,-1.41 C 89.264662,29.527518 89.446,24.428 89.446,24.428 V 15.22 h -5.575 v 8.82 c 0,0 0.127588,4.558336 -2.681,4.974 -1.535537,0.118755 -1.41,-2.752 -1.41,-2.752 V 15.22 Z m 48.013,5.115 c -0.14234,2.774934 -3.845,2.858 -3.845,2.858 0,0 0.0451,-2.893045 1.34,-3.951 2.37305,-1.265097 2.505,1.093 2.505,1.093 z m 15.557,-1.481 c 1.35243,0.04375 1.341,1.481 1.341,1.481 0,0 0.0343,2.662975 -3.845,2.858 0.25293,-4.710875 2.504,-4.339 2.504,-4.339 z" aria-label="Mitsunee"/>
</svg>
