<?xml version="1.0" encoding="UTF-8" standalone="no"?>
<svg viewBox="0 0 24 24" version="1.1" xmlns="http://www.w3.org/2000/svg">
  <path d="m 1.6431154,13.686146 4.9558872,2.819607 c 0.2628498,1.379082 1.4413646,2.436565 2.8762656,2.424282 1.5911038,-0.01563 2.8676478,-1.352283 2.8784208,-2.994898 l 0.0065,-0.0033 3.32548,-2.569448 c 2.127575,0.02345 3.822094,-1.754282 3.822094,-3.9150309 0,-2.1629822 -1.693442,-3.9172643 -3.779003,-3.9172643 -2.062941,0 -3.738068,1.7140821 -3.77685,3.8424476 L 9.5140494,12.907856 c -0.6161888,-0.0134 -1.1709741,0.161917 -1.6535835,0.489099 L 1.6701212,9.9656621 Z m 8.4354156,0.675609 -1.4241295,-0.61975 c 0.268236,-0.104964 0.5300084,-0.152983 0.7950127,-0.152983 1.2259148,0 2.2342238,1.034033 2.2449958,2.305915 0.01077,1.287516 -0.982455,2.338298 -2.2256053,2.349466 -0.9339783,0.0045 -1.7257594,-0.572851 -2.0769439,-1.3936 l 1.4262831,0.620866 c 0.8284076,0.360683 1.7807001,-0.04355 2.1297301,-0.901149 0.349029,-0.8576 -0.03986,-1.846966 -0.869343,-2.208765 z m 3.08202,-4.9144471 c 0,-1.468416 1.151584,-2.6621318 2.568172,-2.6621318 1.416587,0 2.568171,1.1937158 2.568171,2.6621318 0,1.4672991 -1.151584,2.6632481 -2.568171,2.6632481 -1.416588,0 -2.568172,-1.194832 -2.568172,-2.6632481 z m 2.568172,2.0111151 c -1.07079,0 -1.941211,-0.901149 -1.941211,-2.0099985 0,-1.1088495 0.870421,-2.0111156 1.941211,-2.0111156 1.069712,0 1.939055,0.9033828 1.939055,2.0111156 0,1.1077325 -0.869343,2.0099985 -1.939055,2.0099985 z" style="fill:#000000" />
  <path style="fill:none;stroke:#000000;stroke-width:1.5" d="M 22,12 C 22,17.581527 17.436557,22 12,22 6.563443,22 2,17.581527 2,12 c 3e-7,-5.5815268 4.5634431,-9.9999998 10,-10 5.436557,-2e-7 10,4.4184728 10,10 z" />
</svg>
